<?xml version="1.0" encoding="utf-8"?>
<!-- Generator: Adobe Illustrator 18.1.1, SVG Export Plug-In . SVG Version: 6.00 Build 0)  -->
<svg version="1.1" id="Layer_1" xmlns="http://www.w3.org/2000/svg" xmlns:xlink="http://www.w3.org/1999/xlink" x="0px" y="0px"
	 viewBox="0 0 577.1 77.3" enable-background="new 0 0 577.1 77.3" xml:space="preserve">
<g>
	<path fill="#FFFFFF" d="M47.7,60.1l-5.3-12.2H18.7l-5.3,12.2H0L24.5,3.5h12.2l24.5,56.7H47.7z M30.6,20.3l-7.1,16.5h14.2L30.6,20.3
		z"/>
	<path fill="#FFFFFF" d="M91.9,15.8c5.1,0,9.6,2.1,13.6,6.4c4,4.2,6,9.6,6,16c0,6.4-2,11.8-6,16.1c-4,4.3-8.6,6.5-13.9,6.5
		c-5.3,0-9.6-2.1-12.8-6.4v21.5H66.5V16.5h12.2v4.9C82.4,17.7,86.8,15.8,91.9,15.8z M78.5,38.4c0,3.5,1,6.4,3,8.7
		c2,2.2,4.4,3.4,7.2,3.4c2.8,0,5.3-1.1,7.4-3.4c2.1-2.2,3.2-5.1,3.2-8.6c0-3.5-1-6.5-3.1-8.8c-2.1-2.4-4.5-3.6-7.4-3.6
		c-2.9,0-5.3,1.2-7.3,3.5C79.5,31.9,78.5,34.8,78.5,38.4z"/>
	<path fill="#FFFFFF" d="M145.9,15.8c5.1,0,9.6,2.1,13.6,6.4c4,4.2,6,9.6,6,16c0,6.4-2,11.8-6,16.1c-4,4.3-8.6,6.5-13.9,6.5
		c-5.3,0-9.6-2.1-12.8-6.4v21.5h-12.2V16.5h12.2v4.9C136.4,17.7,140.8,15.8,145.9,15.8z M132.5,38.4c0,3.5,1,6.4,3,8.7
		c2,2.2,4.4,3.4,7.2,3.4c2.8,0,5.3-1.1,7.4-3.4c2.1-2.2,3.2-5.1,3.2-8.6c0-3.5-1-6.5-3.1-8.8c-2.1-2.4-4.5-3.6-7.4-3.6
		c-2.9,0-5.3,1.2-7.3,3.5C133.5,31.9,132.5,34.8,132.5,38.4z"/>
	<path fill="#FFFFFF" d="M237.5,60.1l-5.3-12.2h-23.7l-5.3,12.2h-13.5l24.5-56.7h12.2l24.5,56.7H237.5z M220.4,20.3l-7.1,16.5h14.2
		L220.4,20.3z"/>
	<path fill="#FFFFFF" d="M277.2,50c4.1,0,7.7-2,10.9-6.1l7.2,8.1c-5.6,5.8-11.7,8.8-18.2,8.8c-6.5,0-12.1-2.1-16.6-6.2
		s-6.8-9.5-6.8-16.2c0-6.7,2.3-12.1,6.8-16.3c4.6-4.2,10-6.3,16.3-6.3c3.1,0,6.3,0.6,9.5,1.9c3.2,1.3,6,3.2,8.5,5.8l-6.3,8.3
		c-1.4-1.7-3.1-3-5.1-3.9c-2-0.9-4-1.4-6-1.4c-3.2,0-5.9,1-8.2,3.1c-2.3,2.1-3.4,5-3.4,8.7c0,3.7,1.1,6.6,3.4,8.6
		C271.4,49,274.1,50,277.2,50z"/>
	<path fill="#FFFFFF" d="M340.5,60.1h-11.4v-5.3c-3.1,3.9-7,5.9-11.6,5.9c-4.6,0-8.5-1.3-11.6-4c-3.1-2.7-4.7-6.2-4.7-10.7
		s1.6-7.8,4.9-10c3.2-2.2,7.7-3.3,13.3-3.3h9.1v-0.2c0-4.6-2.5-7-7.4-7c-2.1,0-4.3,0.4-6.7,1.3c-2.4,0.8-4.3,1.9-6,3.1l-5.4-7.9
		c5.7-4.2,12.3-6.2,19.6-6.2c5.3,0,9.6,1.3,13,4c3.3,2.6,5,6.8,5,12.6V60.1z M328.2,43.5v-2.1h-7.6c-4.9,0-7.3,1.5-7.3,4.5
		c0,1.6,0.6,2.8,1.7,3.6c1.2,0.8,2.8,1.3,5,1.3c2.2,0,4.1-0.7,5.7-2C327.4,47.5,328.2,45.7,328.2,43.5z"/>
	<path fill="#FFFFFF" d="M369.1,60.8c-5.2,0-9.8-2.2-13.8-6.6c-4.1-4.4-6.1-9.8-6.1-16.3c0-6.5,2-11.8,5.9-15.9
		c3.9-4.1,8.6-6.2,13.9-6.2c5.3,0,9.6,1.9,13,5.6V0h12.2v60.1h-12.2v-5.8C378.5,58.7,374.2,60.8,369.1,60.8z M361.4,38.4
		c0,3.5,1.1,6.4,3.2,8.6c2.1,2.2,4.6,3.4,7.4,3.4c2.8,0,5.2-1.1,7.2-3.4c2-2.2,3-5.1,3-8.7c0-3.5-1-6.5-3-8.8
		c-2-2.4-4.4-3.5-7.3-3.5c-2.9,0-5.3,1.2-7.4,3.6C362.4,32,361.4,34.9,361.4,38.4z"/>
	<path fill="#FFFFFF" d="M443.3,53.8c-4.9,4.6-10.7,7-17.3,7c-6.6,0-12.1-2-16.4-6.1c-4.3-4.1-6.5-9.5-6.5-16.4
		c0-6.9,2.2-12.3,6.6-16.4c4.4-4.1,9.6-6.1,15.6-6.1c6,0,11.1,1.8,15.3,5.4c4.2,3.6,6.3,8.6,6.3,14.9v6.5h-31.8
		c0.4,2.4,1.6,4.3,3.7,5.8c2.1,1.5,4.5,2.3,7.1,2.3c4.3,0,7.8-1.4,10.5-4.3L443.3,53.8z M431.7,28c-1.7-1.4-3.7-2.1-6.1-2.1
		c-2.4,0-4.6,0.7-6.6,2.2c-2,1.5-3.2,3.4-3.5,5.9h19.1C434.3,31.4,433.3,29.4,431.7,28z"/>
	<path fill="#FFFFFF" d="M495.7,36.6v23.5h-12.2V36.3c0-3.5-0.5-6-1.6-7.6s-2.8-2.4-5.1-2.4s-4.4,0.9-6.2,2.6
		c-1.8,1.8-2.7,4.3-2.7,7.7v23.5h-12.2V16.5h12.2v4.9c3.3-3.8,7.2-5.7,11.5-5.7c2.8,0,5.3,0.8,7.5,2.4c2.2,1.6,3.9,3.6,5.1,5.9
		c1.7-2.6,3.9-4.7,6.8-6.2c2.8-1.5,5.7-2.2,8.6-2.2c5.1,0,9.3,1.5,12.4,4.6c3.1,3.1,4.7,7.5,4.7,13.3v26.5h-12.2V36.3
		c0-6.7-2.5-10.1-7.4-10.1c-2.4,0-4.5,0.9-6.3,2.6C496.6,30.6,495.7,33.2,495.7,36.6z"/>
	<path fill="#FFFFFF" d="M542.9,77.3c-4.3,0-8.3-1.7-12.1-5.2l5.5-9c2.1,2,4.2,3,6.3,3c1.1,0,2.1-0.6,2.9-1.7
		c0.8-1.1,1.2-2.3,1.2-3.5c0-1.2-5.6-16-16.9-44.4h13l10.6,27.2l10.6-27.2h13l-20.3,51.4c-1.2,3-3,5.3-5.6,6.9
		C548.7,76.5,545.9,77.3,542.9,77.3z"/>
</g>
<g>
</g>
<g>
</g>
<g>
</g>
<g>
</g>
<g>
</g>
<g>
</g>
<g>
</g>
<g>
</g>
<g>
</g>
<g>
</g>
<g>
</g>
<g>
</g>
<g>
</g>
<g>
</g>
<g>
</g>
</svg>
